<svg width="58" height="57" viewBox="0 0 58 57" fill="none" xmlns="http://www.w3.org/2000/svg">
<path d="M31 6.28737C31 7.31541 31.7823 8.1651 32.7919 8.35892C35.3059 8.84155 37.6524 9.79514 39.7364 11.1239C40.5829 11.6637 41.7038 11.6 42.4138 10.8901L45.8906 7.41384C46.6716 6.63298 47.9377 6.63303 48.7186 7.41395C49.4996 8.19496 49.4996 9.46124 48.7185 10.2422L45.408 13.5521C44.6647 14.2954 44.633 15.4814 45.2468 16.3348C46.9051 18.6404 48.0846 21.3132 48.6401 24.208C48.8339 25.2176 49.6836 26 50.7116 26H56C57.1046 26 58 26.8954 58 28C58 29.1046 57.1046 30 56 30H50.7116C49.6836 30 48.8339 30.7823 48.6401 31.7919C48.1209 34.4965 47.0566 37.007 45.5663 39.2056C44.9897 40.0562 45.0378 41.2096 45.7646 41.9362L48.7193 44.8905C49.5005 45.6715 49.5003 46.9381 48.7192 47.7192C47.9381 48.5003 46.6715 48.5005 45.8905 47.7193L42.9362 44.7646C42.2096 44.0378 41.0562 43.9897 40.2056 44.5663C38.007 46.0566 35.4965 47.1209 32.7919 47.6401C31.7823 47.8339 31 48.6836 31 49.7116V55C31 56.1046 30.1046 57 29 57C27.8954 57 27 56.1046 27 55V49.7116C27 48.6836 26.2176 47.8339 25.208 47.6402C22.3133 47.0848 19.6404 45.9057 17.3348 44.2476C16.4814 43.6339 15.2954 43.6656 14.5522 44.409L11.2426 47.7191C10.4615 48.5004 9.19476 48.5002 8.4137 47.7189C7.63293 46.9378 7.6329 45.6717 8.41374 44.8907L11.8901 41.4138C12.6 40.7038 12.6637 39.5829 12.124 38.7363C10.7954 36.6523 9.8423 34.3058 9.35984 31.7919C9.16609 30.7823 8.3164 30 7.28836 30H2C0.89543 30 0 29.1046 0 28C0 26.8954 0.895431 26 2 26H7.28836C8.3164 26 9.16609 25.2177 9.35984 24.2081C9.8789 21.5032 10.9427 18.9921 12.4329 16.7934C13.0094 15.9428 12.9613 14.7894 12.2347 14.0628L8.41406 10.2422C7.6331 9.46122 7.6331 8.19503 8.41406 7.41406C9.19503 6.6331 10.4612 6.6331 11.2422 7.41406L15.0628 11.2347C15.7894 11.9613 16.9428 12.0094 17.7934 11.4329C19.9921 9.94247 22.5032 8.87814 25.2081 8.35891C26.2177 8.16511 27 7.31541 27 6.28737V2C27 0.895431 27.8954 0 29 0C30.1046 0 31 0.895431 31 2V6.28737ZM19.9959 38.965C19.1678 39.7931 19.2212 41.1631 20.2081 41.7935C21.6034 42.6849 23.1429 43.3702 24.7839 43.8069C25.9441 44.1155 27 43.1763 27 41.9757V37.1236C27 36.3134 26.4319 35.6214 25.6944 35.2858C24.9094 34.9285 23.9652 34.9957 23.3553 35.6056L19.9959 38.965ZM33.8534 35.6825C33.3873 35.2164 32.6756 35.1353 32.0672 35.389C31.4589 35.6427 31 36.2078 31 36.8669V41.9757C31 43.1763 32.0558 44.1156 33.216 43.807C34.6259 43.432 35.9608 42.8735 37.1937 42.1585C38.2327 41.556 38.3156 40.1447 37.4664 39.2955L33.8534 35.6825ZM37.8681 30C37.2088 30 36.6436 30.4589 36.3895 31.0672C36.1354 31.6755 36.2165 32.3874 36.6827 32.8536L40.2955 36.4664C41.1447 37.3156 42.556 37.2327 43.1586 36.1938C43.8738 34.9608 44.4327 33.6259 44.8078 32.216C45.1165 31.0558 44.1773 30 42.9767 30H37.8681ZM15.0233 30C13.8227 30 12.8835 31.0559 13.1922 32.216C13.5054 33.393 13.9467 34.5178 14.5 35.5746C15.0712 36.6655 16.5238 36.7799 17.3945 35.9092L21.2625 32.0412C21.587 31.7167 21.6644 31.2282 21.5036 30.7985C21.3315 30.339 20.909 30 20.4183 30H15.0233ZM17.7035 19.5324C16.8542 18.6832 15.4431 18.7662 14.8407 19.8051C14.1255 21.0384 13.567 22.3738 13.192 23.784C12.8835 24.9442 13.8227 26 15.0233 26H20.1313C20.7909 26 21.3563 25.5408 21.6099 24.9319C21.8635 24.3228 21.7822 23.6104 21.3157 23.144L17.7035 19.5324ZM36.6058 22.3552C35.9958 22.9652 35.9286 23.9094 36.2863 24.6944C36.6223 25.4318 37.3144 26 38.1248 26H42.9767C44.1773 26 45.1165 24.9441 44.8077 23.7839C44.3709 22.1429 43.6852 20.6034 42.7936 19.208C42.1631 18.2212 40.7931 18.1678 39.965 18.9959L36.6058 22.3552ZM27 14.0233C27 12.8227 25.9442 11.8835 24.784 12.192C23.3738 12.567 22.0384 13.1255 20.8051 13.8407C19.7662 14.4431 19.6832 15.8542 20.5324 16.7035L24.144 20.3157C24.6104 20.7822 25.3228 20.8635 25.9319 20.6099C26.5408 20.3563 27 19.7909 27 19.1313V14.0233ZM31 19.4183C31 19.909 31.339 20.3315 31.7985 20.5036C32.2282 20.6644 32.7167 20.587 33.0412 20.2625L36.9092 16.3945C37.7799 15.5238 37.6655 14.0712 36.5746 13.5C35.5178 12.9467 34.393 12.5054 33.216 12.1922C32.0559 11.8835 31 12.8227 31 14.0233V19.4183Z" fill="white" fill-opacity="0.6"/>
</svg>
