<svg width="8" height="8" viewBox="0 0 8 8" fill="none" xmlns="http://www.w3.org/2000/svg">
<path d="M3.09749 0.891366C3.45972 0.132245 4.54028 0.132245 4.90251 0.891366L5.20634 1.52807C5.35212 1.83358 5.64256 2.0446 5.97816 2.08884L6.67759 2.18104C7.5115 2.29096 7.84541 3.31863 7.23538 3.89772L6.72372 4.38343C6.47821 4.61648 6.36727 4.95791 6.42891 5.29076L6.55736 5.98445C6.71051 6.81151 5.83631 7.44665 5.09706 7.04542L4.47702 6.7089C4.1795 6.54742 3.8205 6.54742 3.52298 6.7089L2.90294 7.04542C2.16369 7.44665 1.28949 6.81151 1.44264 5.98445L1.57109 5.29076C1.63273 4.95791 1.52179 4.61648 1.27628 4.38343L0.764622 3.89772C0.154591 3.31863 0.488502 2.29096 1.32241 2.18104L2.02184 2.08884C2.35744 2.0446 2.64788 1.83358 2.79366 1.52807L3.09749 0.891366Z" fill="#B9B6A8"/>
</svg>
